<svg width="596.5" height="72.001" viewBox="0 0 596.5 72.001" xmlns="http://www.w3.org/2000/svg"><g id="svgGroup" stroke-linecap="round" fill-rule="evenodd" font-size="9pt" stroke="#000" stroke-width="0.25mm" fill="black" style="stroke:#000;stroke-width:0.25mm;fill:black"><path d="M 178.3 71.001 L 178.3 1.001 L 194 1.001 L 201 51.101 L 201.2 51.101 L 208.2 1.001 L 223.9 1.001 L 223.9 71.001 L 213.5 71.001 L 213.5 18.001 L 213.3 18.001 L 205.3 71.001 L 196.1 71.001 L 188.1 18.001 L 187.9 18.001 L 187.9 71.001 L 178.3 71.001 Z M 39.1 71.001 L 39.1 1.001 L 50.1 1.001 L 50.1 29.501 L 61.9 29.501 L 61.9 1.001 L 72.9 1.001 L 72.9 71.001 L 61.9 71.001 L 61.9 39.501 L 50.1 39.501 L 50.1 71.001 L 39.1 71.001 Z M 108 71.001 L 97.4 1.001 L 108.5 1.001 L 115.7 55.301 L 115.9 55.301 L 123.1 1.001 L 133.2 1.001 L 122.6 71.001 L 108 71.001 Z M 352.5 71.001 L 341.9 1.001 L 353 1.001 L 360.2 55.301 L 360.4 55.301 L 367.6 1.001 L 377.7 1.001 L 367.1 71.001 L 352.5 71.001 Z M 534 71.001 L 523.4 1.001 L 534.5 1.001 L 541.7 55.301 L 541.9 55.301 L 549.1 1.001 L 559.2 1.001 L 548.6 71.001 L 534 71.001 Z M 0 54.401 L 0 50.401 L 10.4 50.401 L 10.4 55.201 Q 10.4 61.207 14.847 61.908 A 8.05 8.05 0 0 0 16.1 62.001 Q 18.9 62.001 20.35 60.351 Q 21.738 58.771 21.797 55.314 A 18.22 18.22 0 0 0 21.8 55.001 A 16.438 16.438 0 0 0 21.268 50.742 A 13.651 13.651 0 0 0 19.8 47.251 A 19.081 19.081 0 0 0 18.242 45.055 Q 16.134 42.45 12.4 39.201 A 72.472 72.472 0 0 1 8.55 35.563 Q 4.882 31.814 3.025 28.573 A 20.769 20.769 0 0 1 2.9 28.351 A 21.525 21.525 0 0 1 0.28 19.461 A 26.199 26.199 0 0 1 0.2 17.401 A 26.379 26.379 0 0 1 0.652 12.358 Q 1.227 9.407 2.534 7.11 A 13.862 13.862 0 0 1 4.4 4.551 A 13.5 13.5 0 0 1 10.93 0.695 Q 13.117 0.098 15.733 0.014 A 27.056 27.056 0 0 1 16.6 0.001 Q 24.5 0.001 28.55 4.551 Q 32.6 9.101 32.6 17.601 L 32.6 20.501 L 22.2 20.501 L 22.2 16.901 Q 22.2 13.488 20.942 11.827 A 4.111 4.111 0 0 0 20.8 11.651 A 4.506 4.506 0 0 0 18.336 10.179 A 7.037 7.037 0 0 0 16.7 10.001 Q 11.2 10.001 11.2 16.701 Q 11.2 20.501 13.25 23.801 Q 15.068 26.728 19.522 30.756 A 82.526 82.526 0 0 0 20.7 31.801 Q 27.6 37.801 30.2 42.701 Q 32.8 47.601 32.8 54.201 Q 32.8 60.335 30.638 64.434 A 13.911 13.911 0 0 1 28.55 67.401 A 13.66 13.66 0 0 1 21.954 71.295 Q 19.735 71.901 17.08 71.987 A 27.431 27.431 0 0 1 16.2 72.001 A 22.4 22.4 0 0 1 11.475 71.534 Q 6.887 70.543 4.1 67.451 Q 0.641 63.612 0.1 56.96 A 31.618 31.618 0 0 1 0 54.401 Z M 246.2 54.401 L 246.2 50.401 L 256.6 50.401 L 256.6 55.201 Q 256.6 61.207 261.047 61.908 A 8.05 8.05 0 0 0 262.3 62.001 Q 265.1 62.001 266.55 60.351 Q 267.938 58.771 267.997 55.314 A 18.22 18.22 0 0 0 268 55.001 A 16.438 16.438 0 0 0 267.468 50.742 A 13.651 13.651 0 0 0 266 47.251 A 19.081 19.081 0 0 0 264.442 45.055 Q 262.334 42.45 258.6 39.201 A 72.472 72.472 0 0 1 254.75 35.563 Q 251.082 31.814 249.225 28.573 A 20.769 20.769 0 0 1 249.1 28.351 A 21.525 21.525 0 0 1 246.48 19.461 A 26.199 26.199 0 0 1 246.4 17.401 A 26.379 26.379 0 0 1 246.852 12.358 Q 247.427 9.407 248.734 7.11 A 13.862 13.862 0 0 1 250.6 4.551 A 13.5 13.5 0 0 1 257.13 0.695 Q 259.317 0.098 261.933 0.014 A 27.056 27.056 0 0 1 262.8 0.001 Q 270.7 0.001 274.75 4.551 Q 278.8 9.101 278.8 17.601 L 278.8 20.501 L 268.4 20.501 L 268.4 16.901 Q 268.4 13.488 267.142 11.827 A 4.111 4.111 0 0 0 267 11.651 A 4.506 4.506 0 0 0 264.536 10.179 A 7.037 7.037 0 0 0 262.9 10.001 Q 257.4 10.001 257.4 16.701 Q 257.4 20.501 259.45 23.801 Q 261.268 26.728 265.722 30.756 A 82.526 82.526 0 0 0 266.9 31.801 Q 273.8 37.801 276.4 42.701 Q 279 47.601 279 54.201 Q 279 60.335 276.838 64.434 A 13.911 13.911 0 0 1 274.75 67.401 A 13.66 13.66 0 0 1 268.154 71.295 Q 265.935 71.901 263.28 71.987 A 27.431 27.431 0 0 1 262.4 72.001 A 22.4 22.4 0 0 1 257.675 71.534 Q 253.087 70.543 250.3 67.451 Q 246.841 63.612 246.3 56.96 A 31.618 31.618 0 0 1 246.2 54.401 Z M 418.1 54.401 L 418.1 50.401 L 428.5 50.401 L 428.5 55.201 Q 428.5 61.207 432.947 61.908 A 8.05 8.05 0 0 0 434.2 62.001 Q 437 62.001 438.45 60.351 Q 439.838 58.771 439.897 55.314 A 18.22 18.22 0 0 0 439.9 55.001 A 16.438 16.438 0 0 0 439.368 50.742 A 13.651 13.651 0 0 0 437.9 47.251 A 19.081 19.081 0 0 0 436.342 45.055 Q 434.234 42.45 430.5 39.201 A 72.472 72.472 0 0 1 426.65 35.563 Q 422.982 31.814 421.125 28.573 A 20.769 20.769 0 0 1 421 28.351 A 21.525 21.525 0 0 1 418.38 19.461 A 26.199 26.199 0 0 1 418.3 17.401 A 26.379 26.379 0 0 1 418.752 12.358 Q 419.327 9.407 420.634 7.11 A 13.862 13.862 0 0 1 422.5 4.551 A 13.5 13.5 0 0 1 429.03 0.695 Q 431.217 0.098 433.833 0.014 A 27.056 27.056 0 0 1 434.7 0.001 Q 442.6 0.001 446.65 4.551 Q 450.7 9.101 450.7 17.601 L 450.7 20.501 L 440.3 20.501 L 440.3 16.901 Q 440.3 13.488 439.042 11.827 A 4.111 4.111 0 0 0 438.9 11.651 A 4.506 4.506 0 0 0 436.436 10.179 A 7.037 7.037 0 0 0 434.8 10.001 Q 429.3 10.001 429.3 16.701 Q 429.3 20.501 431.35 23.801 Q 433.168 26.728 437.622 30.756 A 82.526 82.526 0 0 0 438.8 31.801 Q 445.7 37.801 448.3 42.701 Q 450.9 47.601 450.9 54.201 Q 450.9 60.335 448.738 64.434 A 13.911 13.911 0 0 1 446.65 67.401 A 13.66 13.66 0 0 1 440.054 71.295 Q 437.835 71.901 435.18 71.987 A 27.431 27.431 0 0 1 434.3 72.001 A 22.4 22.4 0 0 1 429.575 71.534 Q 424.987 70.543 422.2 67.451 Q 418.741 63.612 418.2 56.96 A 31.618 31.618 0 0 1 418.1 54.401 Z M 285.3 71.001 L 285.3 1.001 L 301.6 1.001 A 29.066 29.066 0 0 1 306.017 1.313 Q 308.344 1.672 310.191 2.442 A 11.489 11.489 0 0 1 314 4.951 Q 317.9 8.901 317.9 17.101 L 317.9 21.401 A 25.259 25.259 0 0 1 317.478 26.211 Q 316.963 28.858 315.82 30.807 A 10.176 10.176 0 0 1 310.7 35.201 L 310.7 35.401 A 9.225 9.225 0 0 1 313.934 37.075 A 8.631 8.631 0 0 1 316.35 40.301 A 16.431 16.431 0 0 1 317.356 43.427 Q 318 46.326 318 50.201 L 318 62.501 Q 318 65.434 318.191 67.268 A 21.93 21.93 0 0 0 318.2 67.351 A 12.134 12.134 0 0 0 319.151 70.888 A 13.583 13.583 0 0 0 319.2 71.001 L 308 71.001 A 18.152 18.152 0 0 1 307.475 69.251 A 13.945 13.945 0 0 1 307.2 67.801 A 14.955 14.955 0 0 1 307.114 66.917 Q 307.005 65.413 307 62.666 A 147.151 147.151 0 0 1 307 62.401 L 307 49.601 Q 307 44.801 305.45 42.901 A 4.556 4.556 0 0 0 303.583 41.569 Q 302.815 41.258 301.845 41.117 A 12.174 12.174 0 0 0 300.1 41.001 L 296.3 41.001 L 296.3 71.001 L 285.3 71.001 Z M 377.3 71.001 L 388.7 1.001 L 403.6 1.001 L 415 71.001 L 404 71.001 L 402 57.101 L 402 57.301 L 389.5 57.301 L 387.5 71.001 L 377.3 71.001 Z M 486.1 71.001 L 497.5 1.001 L 512.4 1.001 L 523.8 71.001 L 512.8 71.001 L 510.8 57.101 L 510.8 57.301 L 498.3 57.301 L 496.3 71.001 L 486.1 71.001 Z M 558.8 71.001 L 570.2 1.001 L 585.1 1.001 L 596.5 71.001 L 585.5 71.001 L 583.5 57.101 L 583.5 57.301 L 571 57.301 L 569 71.001 L 558.8 71.001 Z M 465.8 71.001 L 465.8 11.001 L 454.3 11.001 L 454.3 1.001 L 488.3 1.001 L 488.3 11.001 L 476.8 11.001 L 476.8 71.001 L 465.8 71.001 Z M 137.5 54.401 L 137.5 17.601 A 26.391 26.391 0 0 1 137.963 12.497 Q 138.555 9.494 139.906 7.16 A 14.01 14.01 0 0 1 141.8 4.601 Q 145.884 0.232 153.394 0.012 A 27.536 27.536 0 0 1 154.2 0.001 A 22.814 22.814 0 0 1 159.107 0.496 Q 162.308 1.201 164.68 2.91 A 13.123 13.123 0 0 1 166.6 4.601 Q 170.413 8.68 170.845 15.746 A 30.402 30.402 0 0 1 170.9 17.601 L 170.9 54.401 A 26.391 26.391 0 0 1 170.437 59.504 Q 169.845 62.508 168.494 64.841 A 14.01 14.01 0 0 1 166.6 67.401 Q 162.517 71.769 155.006 71.989 A 27.536 27.536 0 0 1 154.2 72.001 A 22.814 22.814 0 0 1 149.294 71.505 Q 146.092 70.8 143.72 69.091 A 13.123 13.123 0 0 1 141.8 67.401 Q 137.987 63.322 137.555 56.255 A 30.402 30.402 0 0 1 137.5 54.401 Z M 81.1 71.001 L 81.1 1.001 L 92.1 1.001 L 92.1 71.001 L 81.1 71.001 Z M 325.6 71.001 L 325.6 1.001 L 336.6 1.001 L 336.6 71.001 L 325.6 71.001 Z M 159.9 55.101 L 159.9 16.901 A 12.201 12.201 0 0 0 159.656 14.339 Q 158.72 10.001 154.2 10.001 A 6.668 6.668 0 0 0 151.74 10.419 Q 148.836 11.566 148.535 15.863 A 14.845 14.845 0 0 0 148.5 16.901 L 148.5 55.101 A 12.201 12.201 0 0 0 148.744 57.662 Q 149.68 62.001 154.2 62.001 A 6.668 6.668 0 0 0 156.66 61.583 Q 159.564 60.435 159.865 56.138 A 14.845 14.845 0 0 0 159.9 55.101 Z M 390.8 47.801 L 400.7 47.801 L 395.8 13.201 L 395.6 13.201 L 390.8 47.801 Z M 499.6 47.801 L 509.5 47.801 L 504.6 13.201 L 504.4 13.201 L 499.6 47.801 Z M 572.3 47.801 L 582.2 47.801 L 577.3 13.201 L 577.1 13.201 L 572.3 47.801 Z M 296.3 31.001 L 300.3 31.001 Q 303.6 31.001 305.25 29.301 Q 306.9 27.601 306.9 23.601 L 306.9 18.201 Q 306.9 14.816 305.829 13.097 A 4.26 4.26 0 0 0 305.55 12.701 A 4.239 4.239 0 0 0 303.4 11.281 Q 302.68 11.062 301.803 11.014 A 9.216 9.216 0 0 0 301.3 11.001 L 296.3 11.001 L 296.3 31.001 Z" vector-effect="non-scaling-stroke"/></g></svg>